HIERARCHY
ROOT Hips
{
	OFFSET -0.001795 -0.223333 0.028219
	CHANNELS 6 Xposition Yposition Zposition Zrotation Yrotation Xrotation 
	JOINT LeftUpLeg
	{
		OFFSET 0.069520 -0.091406 -0.006815
		CHANNELS 3 Zrotation Yrotation Xrotation
		JOINT LeftLeg
		{
			OFFSET 0.034277 -0.375199 -0.004496
			CHANNELS 3 Zrotation Yrotation Xrotation
			JOINT LeftFoot
			{
				OFFSET -0.013596 -0.397961 -0.043693
				CHANNELS 3 Zrotation Yrotation Xrotation
				JOINT LeftToe
				{
					OFFSET 0.026358 -0.055791 0.119288
					CHANNELS 3 Zrotation Yrotation Xrotation
					End Site
					{
						OFFSET 0.000000 0.000000 0.000000
					}
				}
			}
		}
	}
	JOINT RightUpLeg
	{
		OFFSET -0.067670 -0.090522 -0.004320
		CHANNELS 3 Zrotation Yrotation Xrotation
		JOINT RightLeg
		{
			OFFSET -0.038290 -0.382569 -0.008850
			CHANNELS 3 Zrotation Yrotation Xrotation
			JOINT RightFoot
			{
				OFFSET 0.015774 -0.398415 -0.042312
				CHANNELS 3 Zrotation Yrotation Xrotation
				JOINT RightToe
				{
					OFFSET -0.025372 -0.048144 0.123348
					CHANNELS 3 Zrotation Yrotation Xrotation
					End Site
					{
						OFFSET 0.000000 0.000000 0.000000
					}
				}
			}
		}
	}
	JOINT Spine
	{
		OFFSET -0.002533 0.108963 -0.026696
		CHANNELS 3 Zrotation Yrotation Xrotation
		JOINT Spine1
		{
			OFFSET 0.005487 0.135180 0.001092
			CHANNELS 3 Zrotation Yrotation Xrotation
			JOINT Spine2
			{
				OFFSET 0.001457 0.052922 0.025425
				CHANNELS 3 Zrotation Yrotation Xrotation
				JOINT Neck
				{
					OFFSET -0.002778 0.213870 -0.042857
					CHANNELS 3 Zrotation Yrotation Xrotation
					JOINT Head
					{
						OFFSET 0.005152 0.064970 0.051349
						CHANNELS 3 Zrotation Yrotation Xrotation
						End Site
						{
							OFFSET 0.000000 0.000000 0.000000
						}
					}
				}
				JOINT LeftShoulder
				{
					OFFSET 0.078845 0.121749 -0.034090
					CHANNELS 3 Zrotation Yrotation Xrotation
					JOINT LeftArm
					{
						OFFSET 0.090977 0.030469 -0.008868
						CHANNELS 3 Zrotation Yrotation Xrotation
						JOINT LeftForeArm
						{
							OFFSET 0.259612 -0.012772 -0.027456
							CHANNELS 3 Zrotation Yrotation Xrotation
							JOINT LeftHand
							{
								OFFSET 0.249234 0.008986 -0.001171
								CHANNELS 3 Zrotation Yrotation Xrotation
								End Site
								{
									OFFSET 0.000000 0.000000 0.000000
								}
							}
						}
					}
				}
				JOINT RightShoulder
				{
					OFFSET -0.081759 0.118833 -0.038615
					CHANNELS 3 Zrotation Yrotation Xrotation
					JOINT RightArm
					{
						OFFSET -0.096012 0.032551 -0.009143
						CHANNELS 3 Zrotation Yrotation Xrotation
						JOINT RightForeArm
						{
							OFFSET -0.253742 -0.013329 -0.021401
							CHANNELS 3 Zrotation Yrotation Xrotation
							JOINT RightHand
							{
								OFFSET -0.255298 0.007772 -0.005559
								CHANNELS 3 Zrotation Yrotation Xrotation
								End Site
								{
									OFFSET 0.000000 0.000000 0.000000
								}
							}
						}
					}
				}
			}
		}
	}
}
MOTION
Frames: 13
Frame Time: 0.050000
0.000000 0.952491 0.000000 0.539514 3.138540 5.847834 -1.836457 0.382064 3.075117 1.302977 0.274418 -9.383378 -4.121445 -4.870103 6.255246 0.000000 0.000000 0.000000 3.012682 -0.071899 -0.228825 -1.224676 -0.119069 -4.967672 4.055587 7.134090 5.097022 0.000000 0.000000 0.000000 3.164176 0.157403 -3.798512 0.362032 -0.276474 2.334022 -2.450856 0.455206 6.830912 3.125514 -0.383397 -17.246182 0.000000 0.000000 0.000000 -23.304142 -7.983497 1.646097 -23.037522 4.618273 -3.214750 15.075388 -13.426710 -1.279159 0.000000 0.000000 0.000000 19.111022 4.205826 1.239811 28.312151 -7.578168 -4.357566 -14.765854 17.715415 -1.335151 0.000000 0.000000 0.000000 
0.000276 0.950483 0.001818 0.319999 3.398572 6.202579 -1.499942 0.397481 3.414245 0.773509 0.332559 -10.797770 -4.211550 -4.649875 6.900997 0.000000 0.000000 0.000000 2.969706 0.009719 -0.864142 -0.555919 -0.162541 -4.963290 3.636748 6.538969 4.498813 0.000000 0.000000 0.000000 3.769436 0.147376 -3.730229 -0.102422 -0.083055 3.180523 -2.965363 1.054404 6.055770 3.556145 -0.231324 -19.981489 0.000000 0.000000 0.000000 -22.089979 -9.763606 2.435759 -23.900775 4.989649 -3.315100 15.580739 -12.567536 -1.273418 0.000000 0.000000 0.000000 20.214018 2.268312 0.337026 28.364578 -8.781345 -4.612444 -15.208573 18.817790 -1.467641 0.000000 0.000000 0.000000 
0.000373 0.949411 0.003332 0.263045 3.485244 6.274268 -0.784313 0.347855 3.370776 0.197584 0.315705 -10.124505 -4.464709 -5.395271 6.437630 0.000000 0.000000 0.000000 2.862180 0.026968 -0.977550 -0.163903 -0.201068 -5.255313 3.386834 6.506846 3.574486 0.000000 0.000000 0.000000 4.478936 0.131602 -3.552293 -0.524673 0.216492 0.709706 -3.366427 1.078658 8.250415 4.132536 -0.554379 -20.123315 0.000000 0.000000 0.000000 -20.680452 -10.164532 2.759391 -25.438372 5.567422 -3.750732 14.294780 -13.370265 -1.210213 0.000000 0.000000 0.000000 19.964349 3.256663 1.009541 29.434086 -9.353013 -5.030039 -15.984649 18.452907 -1.528790 0.000000 0.000000 0.000000 
0.000294 0.949663 0.004668 0.293581 3.766190 6.324264 -0.581542 0.383995 3.918369 -0.173685 0.333277 -10.734884 -4.847670 -5.861555 6.835057 0.000000 0.000000 0.000000 2.634017 0.013842 -0.813671 0.299182 -0.241082 -5.505263 3.873601 7.558463 3.791823 0.000000 0.000000 0.000000 4.375122 0.136819 -3.642492 -0.693745 0.271881 1.432017 -2.994429 1.074966 7.584635 3.805250 -0.335467 -20.257017 0.000000 0.000000 0.000000 -22.162181 -10.813277 3.026373 -24.766402 6.548812 -3.752088 14.790607 -12.984783 -1.229273 0.000000 0.000000 0.000000 20.374642 3.709475 1.255899 28.860455 -11.216742 -5.231883 -16.024997 17.971243 -1.493477 0.000000 0.000000 0.000000 
0.000189 0.949944 0.005623 0.357078 3.870664 6.069016 -0.608334 0.428196 4.395846 -0.252425 0.329670 -10.617437 -4.479919 -5.275022 6.630547 0.000000 0.000000 0.000000 2.619383 -0.022721 -0.500127 0.028657 -0.239948 -5.871524 3.797251 7.510165 3.585505 0.000000 0.000000 0.000000 4.540826 0.129752 -3.503434 -0.480182 0.165543 1.493082 -3.515910 1.349074 7.063897 4.187701 -0.631359 -19.074991 0.000000 0.000000 0.000000 -22.262120 -10.927212 2.915586 -24.458032 7.141057 -3.739256 14.295692 -13.598911 -1.242353 0.000000 0.000000 0.000000 20.337291 3.166193 1.055026 28.824285 -11.153959 -5.214205 -15.544858 17.240858 -1.339382 0.000000 0.000000 0.000000 
0.000111 0.949968 0.006289 0.519190 4.051569 5.791716 -0.954688 0.478128 4.674943 -0.049123 0.323305 -10.486810 -4.372952 -5.461649 5.946373 0.000000 0.000000 0.000000 1.983087 -0.042377 -0.159642 0.661052 -0.277583 -5.858755 3.800989 7.558315 3.538480 0.000000 0.000000 0.000000 4.368918 0.110245 -3.194476 -0.495400 0.140537 2.329127 -3.410790 0.932044 6.394585 3.808621 -0.414588 -19.341301 0.000000 0.000000 0.000000 -22.477337 -10.772855 2.909797 -24.481469 6.544379 -3.641447 14.521535 -12.818059 -1.185018 0.000000 0.000000 0.000000 19.573701 3.764442 1.277847 29.645784 -11.163721 -5.319797 -15.417184 16.079113 -1.217360 0.000000 0.000000 0.000000 
0.000059 0.950121 0.006736 0.740506 4.122147 5.637667 -0.950772 0.473955 4.639248 -0.150524 0.313126 -10.075423 -4.154084 -5.077643 5.876169 0.000000 0.000000 0.000000 1.820756 -0.062591 0.062124 0.206287 -0.255907 -5.992863 3.875489 7.849557 3.366392 0.000000 0.000000 0.000000 4.260334 0.085337 -2.821628 -0.366168 0.081997 2.177669 -3.532025 1.101961 6.253742 3.895224 -0.446286 -19.241100 0.000000 0.000000 0.000000 -22.722572 -10.621961 2.724483 -23.981414 6.306029 -3.493984 14.387148 -12.104975 -1.107542 0.000000 0.000000 0.000000 19.364527 3.300973 1.079204 29.302134 -11.171773 -5.256460 -14.398708 15.150722 -1.010459 0.000000 0.000000 0.000000 
0.000121 0.950223 0.007139 0.722082 4.256225 5.704735 -0.904430 0.446717 4.385547 0.054849 0.298074 -9.644792 -3.984328 -4.888901 5.626285 0.000000 0.000000 0.000000 1.697759 -0.067949 0.144247 0.355939 -0.270352 -6.125111 3.955779 7.752913 3.842494 0.000000 0.000000 0.000000 4.459505 0.083813 -2.840933 -0.465294 0.124677 2.300416 -3.543860 1.256592 5.978012 3.741925 -0.259516 -19.855858 0.000000 0.000000 0.000000 -23.036752 -10.399570 2.493567 -23.457944 5.610460 -3.269622 14.510241 -10.700593 -0.990957 0.000000 0.000000 0.000000 19.351287 3.087701 1.010901 29.399640 -11.269340 -5.291881 -13.474938 13.941015 -0.808225 0.000000 0.000000 0.000000 
0.000146 0.950447 0.007636 0.767932 4.307646 5.833276 -0.924488 0.428612 4.171516 0.160308 0.293542 -9.551021 -3.876724 -4.609750 5.741898 0.000000 0.000000 0.000000 1.765105 -0.090459 0.310437 0.163386 -0.274086 -6.476295 4.008679 7.748140 4.059528 0.000000 0.000000 0.000000 4.551820 0.082027 -2.858678 -0.364098 0.071070 2.365789 -3.707971 1.633969 5.727535 3.965194 -0.316181 -19.981904 0.000000 0.000000 0.000000 -23.221249 -10.336079 2.283316 -23.149740 5.236153 -3.117882 15.013458 -9.388054 -0.918009 0.000000 0.000000 0.000000 19.474989 2.650027 0.874827 29.636717 -11.648981 -5.422656 -13.007553 13.469962 -0.716297 0.000000 0.000000 0.000000 
0.000068 0.950526 0.008197 0.795124 4.410175 5.892113 -0.867286 0.411536 4.031593 0.158576 0.288819 -9.406433 -3.704057 -4.428845 5.471606 0.000000 0.000000 0.000000 1.734284 -0.129976 0.651101 0.094946 -0.293478 -7.005653 4.094394 7.842389 4.247227 0.000000 0.000000 0.000000 4.645699 0.087133 -2.954162 -0.301282 0.035926 2.433533 -3.856936 2.051099 5.501535 3.775779 -0.101649 -20.395662 0.000000 0.000000 0.000000 -23.365103 -10.433236 2.144136 -22.884801 4.882269 -2.973691 15.339745 -8.250128 -0.840059 0.000000 0.000000 0.000000 19.745851 2.132559 0.705047 29.660102 -11.973784 -5.502926 -12.155146 13.227633 -0.612966 0.000000 0.000000 0.000000 
-0.000086 0.950310 0.008702 0.800422 4.215773 6.047231 -0.951878 0.410384 3.943852 0.242604 0.286485 -9.329540 -3.636177 -4.375464 5.363553 0.000000 0.000000 0.000000 1.802586 -0.155351 0.829063 0.129872 -0.305771 -7.261531 3.954406 7.639128 4.017292 0.000000 0.000000 0.000000 4.690855 0.117603 -3.375646 -0.399448 0.081292 2.566113 -3.890907 2.356866 5.521961 3.605278 0.004644 -20.289009 0.000000 0.000000 0.000000 -23.512065 -10.423054 2.055013 -22.587767 5.073324 -2.941599 15.549267 -7.609805 -0.793101 0.000000 0.000000 0.000000 20.094995 2.005293 0.688438 30.085837 -12.491588 -5.707824 -11.558853 13.363220 -0.566432 0.000000 0.000000 0.000000 
-0.000258 0.949564 0.009072 0.722847 4.122898 6.142225 -0.915680 0.410370 3.965192 0.248122 0.281148 -9.133495 -3.314228 -4.011007 4.926769 0.000000 0.000000 0.000000 2.031771 -0.184570 0.982699 0.099314 -0.311940 -7.442354 3.918852 7.621043 3.899836 0.000000 0.000000 0.000000 4.755889 0.120231 -3.432299 -0.391749 0.087675 2.331839 -4.000138 2.571600 5.719022 3.576889 0.089757 -20.717185 0.000000 0.000000 0.000000 -23.505095 -10.443742 2.006053 -22.728742 5.050766 -2.950978 15.757944 -6.992250 -0.746795 0.000000 0.000000 0.000000 20.437861 1.660636 0.547630 30.456066 -12.721113 -5.854777 -10.824057 13.901381 -0.528405 0.000000 0.000000 0.000000 
-0.000398 0.948817 0.009278 0.617536 3.946319 6.236123 -1.068945 0.420876 3.955319 0.492092 0.271636 -8.954526 -2.990731 -3.678459 4.423333 0.000000 0.000000 0.000000 2.227910 -0.204935 1.068165 -0.042468 -0.305770 -7.460231 3.927160 7.994907 3.320046 0.000000 0.000000 0.000000 4.875696 0.135328 -3.643015 -0.348139 0.066397 2.366096 -4.193312 2.549712 5.790245 3.365979 0.224322 -20.970156 0.000000 0.000000 0.000000 -23.735757 -10.623967 2.126676 -22.870542 5.382375 -3.027536 15.975787 -6.725355 -0.729904 0.000000 0.000000 0.000000 20.687730 1.936950 0.687926 31.167030 -13.426303 -6.154546 -10.284174 14.859622 -0.531128 0.000000 0.000000 0.000000 
